<?xml version="1.0" encoding="UTF-8"?>
<!DOCTYPE svg PUBLIC "-//W3C//DTD SVG 1.1//EN" "http://www.w3.org/Graphics/SVG/1.1/DTD/svg11.dtd">
<svg version="1.1" xmlns="http://www.w3.org/2000/svg" xmlns:xlink="http://www.w3.org/1999/xlink" x="0" y="0" width="787" height="521" viewBox="0, 0, 787, 521">
  <defs>
    <clipPath id="Clip_1">
      <path d="M85.971,173.09 L238.74,173.09 L238.74,425.814 L85.971,425.814 z"/>
    </clipPath>
    <clipPath id="Clip_2">
      <path d="M304.013,343.481 L758.231,343.481 L758.231,476.822 L304.013,476.822 z"/>
    </clipPath>
    <clipPath id="Clip_3">
      <path d="M86.05,187.387 L200.814,187.387 L200.814,421.224 L86.05,421.224 z"/>
    </clipPath>
  </defs>
  <g id="Слой_1">
    <g>
      <path d="M291.902,179.804 L438.471,201.788 C438.471,201.788 479.852,145.209 390.84,71.714 C304.422,0.363 313.762,5.668 313.762,5.668 L282.749,155.988 L291.902,172.476" fill="#DF5624"/>
      <path d="M781.419,434.54 C781.419,490.048 643.426,516.671 405.574,516.671 C167.722,516.671 44.348,479.899 44.348,434.54 C44.348,377.822 157.735,361.313 405.574,352.409 C654.073,343.482 781.419,375.276 781.419,434.54" fill="#F5E6DE"/>
      <path d="M97.312,387.391 C97.312,387.391 61.145,386.934 74.171,400.471 C78.622,405.095 101.681,413.555 125.045,419.516 C201.699,439.07 224.731,441.609 297.637,436.978 C305.061,436.506 285.781,467.178 285.861,480.871 C285.937,494.028 303.417,486.022 324.44,481.753 C362.283,474.069 404.191,470.464 473.801,481.651 C492.414,484.642 551.71,489.188 596.932,489.984 C652.161,490.956 705.767,480.871 735.007,453.025 C741.323,447.009 753.523,426.8 755.101,418.704 C757.664,405.556 736.984,393.975 736.984,393.975 z" fill="#E8D7CE"/>
      <path d="M311.039,20.322 L282.75,149.195 C288.848,164.538 295.323,176.735 299.198,183.524 L405.448,199.461 C416.393,191.636 429.228,172.236 396.165,129.001 C348.534,66.713 311.04,20.323 311.039,20.322" fill="#CD4428"/>
      <path d="M171.914,339.19 C96.516,361.174 67.002,349.776 53.746,322.092 C36.232,285.515 4.281,126.675 4.281,126.675 L108.563,154.273 C121.967,157.276 134.15,164.259 143.515,174.307 L171.914,209.968 z" fill="#DF5624"/>
      <path d="M108.707,304.382 C125.762,311.363 140.788,317.206 153.955,322.092 L171.914,209.967 L143.516,174.307 C134.15,164.26 121.967,157.275 108.563,154.273 L4.281,126.674 C4.281,126.674 46.418,278.882 108.707,304.382" fill="#CD4428"/>
      <path d="M417.336,307.14 C417.336,307.14 454.478,309.401 509.096,284.499 C522.093,278.574 566.524,260.315 605.342,263.93 C641.668,267.313 683.313,291 695.496,316.561 C707.277,341.279 708.251,389.001 650.419,412.06 C585.849,437.805 451.644,412.06 403.137,412.06 C342.617,412.06 352.613,394.823 352.613,394.823 z" fill="#EE7B29"/>
      <path d="M482.923,217.759 C482.923,217.759 345.163,101.026 215.089,151.278 C113.628,190.475 85.97,393.79 85.97,393.79 C85.97,393.79 249.897,452.775 350.659,410.639 C441.593,372.612 488.895,214.558 482.923,217.759" fill="#EE7B29"/>
      <path d="M482.923,217.759 C482.923,217.759 478.639,212.752 462.802,205.218 C446.18,199.234 418.623,197.231 377.978,217.759 C275.384,269.573 325.359,334.44 325.359,334.44 C334.519,357.033 284.537,350.752 284.537,350.752 C266.832,321.371 260.728,278.882 176.455,313.541 C140.058,328.871 109.914,360.498 86.263,393.162 C86.217,393.462 86.17,393.761 86.132,394.018 C86.132,394.018 254.878,453.163 350.497,413.075 C441.397,374.966 488.895,214.558 482.923,217.759" fill="#F9E1A1"/>
      <path d="M347.198,339.691 C350.891,349.111 338.228,362.884 318.917,370.452 C299.604,378.02 280.956,376.519 277.264,367.099 C273.573,357.678 286.234,343.906 305.547,336.338 C324.858,328.769 343.507,330.271 347.198,339.691" fill="#735428"/>
      <path d="M332.205,339.669 C333.979,344.196 331.062,349.572 325.69,351.677 C320.318,353.782 314.525,351.82 312.751,347.293 C310.977,342.767 313.894,337.39 319.266,335.285 C324.638,333.18 330.431,335.142 332.205,339.669" fill="#FBEFE1"/>
      <g clip-path="url(#Clip_1)" opacity="0.46">
        <path d="M180.262,173.09 C107.119,238.344 85.971,393.791 85.971,393.791 C85.971,393.791 162.355,421.894 238.74,425.814 C186.834,408.131 138.168,358.881 140.058,328.872 C142.586,288.73 180.262,173.09 180.262,173.09" fill="#EE7B29"/>
      </g>
      <path d="M385.817,257.221 C384.797,258.012 383.756,258.767 382.726,259.541 L379.718,261.906 L376.802,264.364 C375.87,265.225 374.91,266.047 374.01,266.931 C373.129,267.836 372.183,268.662 371.343,269.595 L370.053,270.957 L368.832,272.376 C367.995,273.299 367.284,274.322 366.494,275.272 C365.78,276.281 365.023,277.256 364.379,278.303 C363.682,279.315 363.079,280.38 362.461,281.431 C361.891,282.508 361.323,283.582 360.823,284.685 C360.321,285.785 359.853,286.899 359.463,288.036 C359.252,288.6 359.066,289.17 358.892,289.743 C358.701,290.312 358.547,290.89 358.399,291.469 C358.087,292.623 357.867,293.795 357.671,294.965 C357.487,296.137 357.345,297.315 357.291,298.492 C357.217,299.668 357.233,300.844 357.295,302.001 C357.325,302.58 357.381,303.152 357.448,303.716 C357.489,303.992 357.523,304.276 357.573,304.54 C357.612,304.793 357.683,305.112 357.711,305.233 L352.71,304.277 C353.567,303.122 354.392,302.049 355.264,300.967 L357.886,297.769 C359.645,295.649 361.489,293.604 363.344,291.571 C367.087,287.534 371.005,283.652 375.16,280.024 C377.235,278.208 379.361,276.449 381.555,274.774 C382.66,273.946 383.771,273.126 384.902,272.335 C386.028,271.536 387.172,270.763 388.327,270.009 C389.493,269.268 390.674,268.552 391.874,267.87 C393.07,267.183 394.276,266.514 395.515,265.908 C396.761,265.315 397.995,264.709 399.273,264.195 C400.543,263.669 401.838,263.208 403.137,262.783 C401.979,263.521 400.805,264.2 399.691,264.982 C398.546,265.704 397.455,266.513 396.362,267.301 L394.739,268.509 L393.145,269.751 C392.085,270.579 391.059,271.453 390.032,272.319 C385.914,275.772 382.06,279.519 378.29,283.336 C374.544,287.18 370.912,291.138 367.403,295.202 C365.635,297.222 363.927,299.295 362.214,301.359 L359.692,304.49 C358.875,305.538 358.022,306.604 357.254,307.628 L357.202,307.697 C356.276,308.931 354.526,309.18 353.292,308.255 C352.752,307.849 352.399,307.282 352.253,306.673 C352.132,306.171 352.077,305.862 352.015,305.482 C351.95,305.116 351.909,304.763 351.861,304.405 C351.781,303.696 351.721,302.992 351.689,302.292 C351.616,300.891 351.659,299.5 351.771,298.121 C351.872,296.74 352.07,295.374 352.318,294.022 C352.587,292.674 352.91,291.339 353.317,290.033 C353.514,289.378 353.719,288.727 353.961,288.089 C354.188,287.445 354.421,286.805 354.7,286.184 C355.217,284.926 355.815,283.705 356.447,282.51 C356.777,281.921 357.081,281.316 357.434,280.741 L358.504,279.028 C359.268,277.922 360.015,276.807 360.855,275.767 C361.659,274.698 362.566,273.72 363.431,272.712 C364.356,271.76 365.249,270.778 366.239,269.902 L367.692,268.56 L369.202,267.291 C370.193,266.429 371.252,265.655 372.302,264.877 C373.357,264.105 374.462,263.407 375.534,262.673 C376.638,261.983 377.748,261.309 378.872,260.662 C380.023,260.051 381.159,259.426 382.307,258.838 C383.477,258.299 384.636,257.742 385.817,257.221" fill="#665348"/>
      <path d="M187.466,352.523 C188.427,351.864 189.407,351.243 190.378,350.602 L193.434,348.861 C194.478,348.332 195.525,347.794 196.601,347.315 C197.689,346.87 198.757,346.35 199.877,345.965 C200.986,345.541 202.112,345.163 203.263,344.85 C204.402,344.493 205.571,344.239 206.741,343.967 C207.916,343.729 209.103,343.498 210.305,343.367 L212.112,343.175 L213.933,343.079 C214.541,343.037 215.152,343.066 215.763,343.069 C216.374,343.073 216.986,343.084 217.597,343.138 C218.822,343.197 220.043,343.352 221.262,343.539 L223.082,343.88 L224.887,344.316 C226.082,344.643 227.259,345.038 228.423,345.476 C229.578,345.937 230.724,346.429 231.831,347.003 C232.938,347.579 234.019,348.208 235.064,348.897 C236.105,349.593 237.129,350.323 238.093,351.144 C238.575,351.557 239.05,351.978 239.514,352.426 C239.995,352.896 240.397,353.293 240.937,353.93 C241.932,355.103 241.788,356.861 240.615,357.856 C240.179,358.225 239.663,358.438 239.136,358.499 L239.023,358.512 L235.212,358.958 L231.377,359.443 C228.823,359.794 226.263,360.116 223.714,360.502 C218.607,361.232 213.518,362.06 208.448,362.972 L204.652,363.689 C203.387,363.931 202.128,364.195 200.869,364.461 C198.349,364.983 195.834,365.543 193.353,366.215 C192.112,366.546 190.858,366.854 189.631,367.233 C188.389,367.582 187.18,368.009 185.952,368.406 L184.129,369.054 L182.331,369.776 L180.551,370.56 L178.802,371.44 C179.296,371.013 179.795,370.583 180.309,370.169 L181.904,368.994 L183.572,367.923 L185.284,366.919 C186.437,366.27 187.622,365.676 188.817,365.114 C190.009,364.535 191.221,364.01 192.439,363.493 C197.338,361.511 202.36,359.861 207.449,358.525 C212.533,357.162 217.675,356.062 222.84,355.126 C225.426,354.678 228.012,354.229 230.613,353.872 L234.516,353.343 C235.824,353.169 237.116,353.031 238.458,352.895 L236.544,357.476 C236.34,357.231 235.936,356.799 235.591,356.463 C235.227,356.105 234.842,355.757 234.45,355.414 C233.657,354.736 232.826,354.084 231.962,353.477 C231.096,352.871 230.193,352.311 229.266,351.795 C228.341,351.272 227.386,350.8 226.415,350.36 L224.933,349.752 L223.422,349.212 L221.886,348.733 L220.322,348.334 C219.269,348.112 218.21,347.889 217.134,347.744 C216.6,347.65 216.059,347.597 215.516,347.549 C214.974,347.5 214.432,347.43 213.885,347.42 L212.242,347.339 L210.592,347.349 C209.49,347.37 208.382,347.428 207.273,347.512 C206.166,347.626 205.051,347.72 203.947,347.92 C202.833,348.066 201.738,348.319 200.625,348.53 C199.508,348.72 198.422,349.05 197.31,349.305 L194.013,350.249 L190.745,351.333 C189.652,351.73 188.568,352.145 187.466,352.523" fill="#665348"/>
      <path d="M352.613,371.44 C352.613,371.44 326.782,379.601 333.842,389.714 C337.378,394.779 342.617,393.755 346.642,390.005 C351.003,385.944 346.642,382.305 352.613,371.44" fill="#735428"/>
      <path d="M701.774,341.44 C701.195,332.056 698.765,323.421 695.496,316.561 C695.27,316.089 695.015,315.617 694.769,315.146 C692.232,318.727 683.121,331.296 672.348,342.787 C659.635,356.348 627.868,358.243 620.463,359.199 C607.798,360.835 585.547,355.223 565.95,353.395 C544.089,351.355 495.289,350.076 495.289,350.076 L477.42,368.617 C477.42,368.617 593.565,389.193 628.489,387.263 C662.807,385.367 699.982,349.214 701.774,341.44" fill="#DF5624"/>
      <path d="M695.496,316.561 C695.496,316.561 715.054,307.536 735.411,325.203 C746.142,334.516 758.231,352.386 758.231,379.583 C758.231,401.452 754.07,424.466 732.071,442.062 C698.792,468.681 661.816,486.733 515.62,470.895 C461.707,465.055 437.678,461.777 383.392,456.443 C356.29,453.78 304.012,470.417 304.012,470.417 C304.012,470.417 312.38,430.362 321.628,416.848 C347.924,378.418 401.359,372.085 429.006,368.738 C516.026,358.201 551.763,362.467 599.58,372.7 C632.521,379.75 662.452,366.82 674.405,358.201 C686.358,349.582 695.496,316.561 695.496,316.561" fill="#EE7B29"/>
      <path d="M405.141,371.935 C379.763,366.573 338.377,386.545 317.449,417.13 C308.202,430.644 296.574,475.939 296.574,475.939 C296.574,475.939 346.631,464.134 370.847,461.383 C386.222,459.636 400.471,459.67 417.336,460.356 C434.684,446.76 422.363,385.714 405.141,371.935" fill="#F9E1A1"/>
      <g clip-path="url(#Clip_2)" opacity="0.46">
        <path d="M758.231,379.583 C758.231,362.603 754.005,353.394 749.706,343.481 C749.706,343.481 747.896,359.924 736.512,382.305 C726.887,401.226 700.45,421.246 683.719,427.012 C649.814,438.697 573.25,440.316 526.955,433.265 C480.66,426.213 463.11,420.339 444.835,421.224 C426.561,422.109 390.63,437.864 353.904,450.301 C325.868,459.794 331.46,458.445 322.478,465.165 C322.153,466.629 304.012,470.417 304.012,470.417 C304.012,470.417 356.29,453.78 383.392,456.443 C437.678,461.777 461.707,465.055 515.62,470.896 C661.816,486.733 698.792,468.681 732.071,442.063 C754.07,424.467 758.231,401.453 758.231,379.583" fill="#EE7B29"/>
      </g>
      <path d="M732.071,442.063 C754.07,424.467 758.231,401.453 758.231,379.583 C758.231,375.823 757.072,365.433 757.072,365.433 C754.409,372.338 748.801,390.13 742.401,407.072 C733.86,429.677 701.985,446.328 685.344,451.946 C651.365,463.416 573.25,460.622 526.955,453.57 C480.66,446.518 453.461,446.115 435.186,447 C421.225,447.676 405.064,451.647 382.775,456.398 C382.978,456.415 383.192,456.424 383.392,456.443 C437.678,461.778 461.707,465.055 515.62,470.896 C661.816,486.734 698.792,468.681 732.071,442.063" fill="#DF5624"/>
      <path d="M417.336,460.356 C422.21,456.536 424.741,448.972 425.481,439.763 C340.351,429.203 296.574,475.939 296.574,475.939 C296.574,475.939 346.631,464.134 370.847,461.382 C386.222,459.636 400.471,459.67 417.336,460.356" fill="#F4CCA1"/>
      <path d="M459.146,343.481 C459.146,343.481 421.443,390.624 403.137,407.68 C384.83,424.736 366.328,433.32 378.792,443.011 C391.327,452.757 417.336,442.629 432.75,434.077 C454.227,422.159 511.127,342.12 514.782,334.44 C516.274,331.303 507.267,332.236 496.089,334.439 C479.896,337.629 459.146,343.481 459.146,343.481" fill="#EE7B29"/>
      <path d="M381.141,444.881 C401.368,447.775 410.55,445.467 432.75,434.077 C454.604,422.866 518.481,330.065 514.87,332.58 C477.867,358.338 459.147,434.89 381.141,444.881" fill="#DF5624"/>
      <g clip-path="url(#Clip_3)" opacity="0.25">
        <path d="M166.309,187.387 C104.461,258.525 86.05,393.79 86.05,393.79 C86.05,393.79 137.689,412.369 200.814,421.224 C155.308,403.567 116.328,378.427 118.023,351.512 C120.502,312.146 164.603,192.022 166.309,187.387" fill="#EE7B29"/>
      </g>
      <path d="M359.17,315.147 C359.17,315.147 359.266,315.035 359.446,314.826 C359.634,314.631 359.894,314.315 360.254,313.971 C360.958,313.251 361.994,312.283 363.295,311.234 C364.594,310.182 366.156,309.048 367.885,307.943 C368.749,307.388 369.652,306.837 370.588,306.312 C371.517,305.773 372.485,305.273 373.45,304.77 C374.429,304.293 375.404,303.807 376.389,303.381 C377.365,302.935 378.349,302.543 379.306,302.174 C381.222,301.438 383.063,300.857 384.681,300.438 C386.298,300.016 387.693,299.759 388.692,299.622 C389.685,299.477 390.283,299.452 390.283,299.452 C390.283,299.452 389.908,299.919 389.2,300.63 C388.497,301.353 387.461,302.322 386.161,303.372 C384.863,304.424 383.301,305.559 381.571,306.663 C380.705,307.212 379.805,307.771 378.866,308.29 C377.938,308.831 376.968,309.326 376.003,309.829 C375.023,310.306 374.047,310.789 373.061,311.215 C372.083,311.655 371.103,312.053 370.143,312.419 C368.227,313.152 366.386,313.734 364.768,314.155 C363.152,314.578 361.757,314.835 360.759,314.973 C360.269,315.06 359.861,315.081 359.592,315.115 C359.317,315.135 359.17,315.147 359.17,315.147" fill="#FBC984"/>
      <path d="M207.858,381.039 C207.858,381.039 207.964,380.937 208.163,380.745 C208.367,380.568 208.655,380.277 209.046,379.969 C209.813,379.316 210.934,378.447 212.326,377.523 C213.716,376.596 215.376,375.609 217.2,374.668 C218.111,374.195 219.061,373.73 220.041,373.293 C221.015,372.841 222.025,372.434 223.033,372.02 C224.052,371.635 225.067,371.241 226.088,370.908 C227.1,370.553 228.116,370.254 229.103,369.974 C231.078,369.419 232.965,369.009 234.615,368.741 C236.264,368.469 237.677,368.342 238.684,368.299 C239.686,368.243 240.283,368.275 240.283,368.275 C240.283,368.275 239.867,368.704 239.097,369.348 C238.33,370.003 237.21,370.872 235.819,371.798 C234.429,372.727 232.769,373.713 230.945,374.652 C230.032,375.121 229.084,375.594 228.102,376.025 C227.128,376.477 226.116,376.881 225.109,377.294 C224.089,377.678 223.073,378.069 222.052,378.402 C221.037,378.751 220.025,379.057 219.036,379.333 C217.06,379.887 215.173,380.297 213.523,380.566 C211.875,380.839 210.463,380.967 209.457,381.012 C208.961,381.053 208.552,381.036 208.282,381.046 C208.005,381.042 207.858,381.039 207.858,381.039" fill="#FBC984"/>
      <path d="M418.335,460.356 C421.121,458.173 422.824,452.332 424.182,448.094 C410.358,448.265 395.017,451.381 386.454,451.945 C365.414,453.331 347.819,456.682 332.725,462.623 C320.022,467.623 303.145,473.621 298.1,475.402 C297.751,475.749 297.573,475.939 297.573,475.939 C297.573,475.939 347.63,464.134 371.845,461.382 C387.22,459.636 401.47,459.67 418.335,460.356" fill="#F4BC83"/>
      <path d="M439.134,187.387 C439.134,187.387 459.146,193.727 477.421,187.387 C494.193,181.568 462.802,205.218 462.802,205.218 z" fill="#EE7B29"/>
      <path d="M93.717,353.394 C93.717,353.394 78.041,371.065 64.417,375.275 C48.805,380.099 90.001,373.327 90.001,373.327 z" fill="#E16440"/>
      <path d="M455.161,199.462 C455.161,199.462 478.332,211.086 497.824,205.219 C517.317,199.352 482.924,217.76 482.924,217.76 z" fill="#EE7B29"/>
      <path d="M90.002,373.328 C90.002,373.328 76.846,387.58 60.885,389.711 C44.925,391.843 86.051,393.791 86.051,393.791 z" fill="#DF5624"/>
      <path d="M203.332,156.744 C203.332,156.744 208.772,151.278 200.814,145.204 C192.435,138.808 178.802,138.715 178.802,138.715 C178.802,138.715 194.661,128.9 208.772,136.632 C237.751,152.513 225.123,147.756 225.123,147.756 z" fill="#EE7B29"/>
      <path d="M221.558,149.459 C221.558,149.459 229.224,137.674 221.558,129.074 C214.494,121.149 203.331,115.142 203.331,115.142 C203.331,115.142 215.197,117.861 225.893,120.568 C243.499,125.024 243.097,145.204 243.097,145.204 z" fill="#EE7B29"/>
      <path d="M243.605,144.628 C243.605,144.628 239.746,134.48 253.32,120.568 C261.694,111.987 270.878,109.892 270.878,109.892 L257.301,130.029 C251.284,154.2 271.503,148.319 271.503,148.319 z" fill="#EE7B29"/>
    </g>
  </g>
</svg>
